<svg width="103" height="96" viewBox="0 0 103 96" fill="none" xmlns="http://www.w3.org/2000/svg">
<path d="M51.1999 4.00042C38.884 3.88309 27.0223 8.35485 18.2217 16.4329C9.4211 24.511 4.40168 35.5344 4.2666 47.0804C4.31406 56.2051 7.44503 65.0809 13.2098 72.433C18.9746 79.7851 27.0765 85.2352 36.3519 88.0004C38.6986 88.4004 39.5519 87.0804 39.5519 85.9204C39.5519 84.7604 39.5519 82.2004 39.5519 78.6004C26.4959 81.2004 23.7226 72.8404 23.7226 72.8404C22.8535 70.216 21.0057 67.9726 18.5173 66.5204C14.2506 63.8804 18.8586 63.9204 18.8586 63.9204C20.3334 64.1053 21.7444 64.6007 22.9858 65.3697C24.2272 66.1386 25.2668 67.1611 26.0266 68.3604C27.3507 70.5129 29.5233 72.092 32.0768 72.7578C34.6303 73.4236 37.3605 73.1229 39.6799 71.9204C39.9185 69.7299 40.9765 67.6894 42.6666 66.1604C32.2559 65.0804 21.3333 61.4004 21.3333 44.8804C21.2402 40.5711 22.9386 36.3969 26.0693 33.2404C24.6435 29.5407 24.8118 25.4657 26.5386 21.8804C26.5386 21.8804 30.5066 20.7204 39.3386 26.2804C47.0267 24.3598 55.1172 24.3598 62.8053 26.2804C71.7653 20.7204 75.6053 21.8804 75.6053 21.8804C77.332 25.4657 77.5004 29.5407 76.0746 33.2404C79.278 36.339 81.0685 40.4853 81.0666 44.8004C81.0666 61.3604 70.0586 65.0004 59.7333 66.0804C60.8639 67.1095 61.7372 68.3606 62.2905 69.7439C62.8438 71.1271 63.0633 72.6081 62.9333 74.0804V85.8804C62.9333 85.8804 63.7866 88.4004 66.1333 87.9604C75.3824 85.178 83.457 79.7267 89.204 72.385C94.9509 65.0433 98.0761 56.1868 98.1333 47.0804C97.9982 35.5344 92.9788 24.511 84.1781 16.4329C75.3775 8.35485 63.5158 3.88309 51.1999 4.00042Z" fill="white"/>
</svg>
