<svg width="91" height="91" viewBox="0 0 91 91" fill="none" xmlns="http://www.w3.org/2000/svg">
<path d="M67.7834 0C70.8775 0 73.7918 0.593644 76.5262 1.78093C79.2605 2.96822 81.6531 4.58725 83.7038 6.63802C85.7546 8.68879 87.3736 11.0814 88.5609 13.8157C89.7482 16.5501 90.3419 19.4643 90.3419 22.5585V67.6755C90.3419 70.7696 89.7482 73.7018 88.5609 76.4722C87.3736 79.2425 85.7546 81.6531 83.7038 83.7038C81.6531 85.7546 79.2605 87.3736 76.5262 88.5609C73.7918 89.7482 70.8775 90.3419 67.7834 90.3419H22.5585C19.4643 90.3419 16.5501 89.7482 13.8157 88.5609C11.0814 87.3736 8.68879 85.7546 6.63802 83.7038C4.58725 81.6531 2.96822 79.2425 1.78093 76.4722C0.593644 73.7018 0 70.7696 0 67.6755V22.5585C0 19.4643 0.593644 16.5501 1.78093 13.8157C2.96822 11.0814 4.58725 8.68879 6.63802 6.63802C8.68879 4.58725 11.0814 2.96822 13.8157 1.78093C16.5501 0.593644 19.4643 0 22.5585 0H67.7834ZM31.0854 33.8917H19.7522V70.5897H31.0854V33.8917ZM25.4727 30.9774C26.9838 30.9774 28.297 30.4378 29.4124 29.3584C30.5277 28.2791 31.0854 26.9479 31.0854 25.3648C31.0854 23.7818 30.5277 22.4505 29.4124 21.3712C28.297 20.2918 26.9838 19.7522 25.4727 19.7522C23.8897 19.7522 22.5405 20.2918 21.4252 21.3712C20.3098 22.4505 19.7522 23.7818 19.7522 25.3648C19.7522 26.9479 20.3098 28.2791 21.4252 29.3584C22.5405 30.4378 23.8897 30.9774 25.4727 30.9774ZM70.5897 49.3264C70.5897 46.736 69.8701 44.1995 68.431 41.717C66.9919 39.2345 65.121 37.3456 62.8184 36.0504C60.7316 34.8991 58.3031 34.2875 55.5327 34.2155C52.7624 34.1435 50.2619 34.6113 48.0312 35.6187V33.8917H36.698V70.5897H48.0312V48.1392L52.6724 45.8725C53.2481 45.5847 54.0396 45.4408 55.047 45.4408C56.0544 45.4408 56.81 45.6207 57.3137 45.9804C57.7454 46.1963 58.1771 46.664 58.6089 47.3836C59.0406 48.1032 59.2565 48.7508 59.2565 49.3264V70.5897H70.5897V49.3264Z" fill="white"/>
</svg>
