<svg width="91" height="91" viewBox="0 0 91 91" fill="none" xmlns="http://www.w3.org/2000/svg">
<path d="M67.7834 0C70.8775 0 73.7918 0.593644 76.5262 1.78093C79.2605 2.96822 81.6531 4.58725 83.7038 6.63802C85.7546 8.68879 87.3736 11.0814 88.5609 13.8157C89.7482 16.5501 90.3419 19.4643 90.3419 22.5585V67.6755C90.3419 70.7696 89.7482 73.7018 88.5609 76.4722C87.3736 79.2425 85.7546 81.6531 83.7038 83.7038C81.6531 85.7546 79.2605 87.3736 76.5262 88.5609C73.7918 89.7482 70.8775 90.3419 67.7834 90.3419H22.5585C19.4643 90.3419 16.5501 89.7482 13.8157 88.5609C11.0814 87.3736 8.68879 85.7546 6.63802 83.7038C4.58725 81.6531 2.96822 79.2425 1.78093 76.4722C0.593644 73.7018 0 70.7696 0 67.6755V22.5585C0 19.4643 0.593644 16.5501 1.78093 13.8157C2.96822 11.0814 4.58725 8.68879 6.63802 6.63802C8.68879 4.58725 11.0814 2.96822 13.8157 1.78093C16.5501 0.593644 19.4643 0 22.5585 0H67.7834ZM66.704 33.9996C68.7908 32.5605 70.6257 30.6896 72.2087 28.387C71.2013 28.8187 70.176 29.1785 69.1326 29.4663C68.0892 29.7542 67.0278 29.97 65.9485 30.114C68.3231 28.6029 69.9061 26.5521 70.6976 23.9616C68.5389 25.3288 66.2363 26.2283 63.7898 26.66C61.6311 24.3574 58.9327 23.2061 55.6946 23.2061C54.1835 23.2061 52.7624 23.4939 51.4312 24.0696C50.1 24.6452 48.9487 25.4368 47.9773 26.4442C47.0058 27.4516 46.2323 28.6209 45.6566 29.9521C45.081 31.2833 44.7932 32.7044 44.7932 34.2155C44.7932 34.6472 44.8112 35.061 44.8471 35.4568C44.8831 35.8525 44.9371 36.2663 45.009 36.698C40.4757 36.4821 36.2663 35.3488 32.3806 33.298C28.4949 31.2473 25.1849 28.5669 22.4505 25.2569C21.4432 26.9119 20.9395 28.7468 20.9395 30.7616C20.9395 32.6325 21.3892 34.3594 22.2886 35.9425C23.1881 37.5255 24.3574 38.8207 25.7965 39.8281C24.9331 39.8281 24.0876 39.7022 23.2601 39.4504C22.4326 39.1985 21.623 38.8927 20.8315 38.5329V38.6409C20.8315 41.3033 21.677 43.6239 23.368 45.6027C25.059 47.5815 27.1637 48.8587 29.6822 49.4344C28.6748 49.6503 27.7034 49.7582 26.768 49.7582H25.7426L24.7172 49.5423C25.4368 51.773 26.714 53.5899 28.5489 54.9931C30.3838 56.3962 32.5245 57.1338 34.971 57.2057C33.1002 58.6449 30.9954 59.7962 28.6568 60.6597C26.3182 61.5231 23.8897 61.9549 21.3712 61.9549C20.8675 61.9549 20.3998 61.9369 19.968 61.9009C19.5363 61.8649 19.1046 61.811 18.6728 61.739C21.1193 63.3221 23.7638 64.5453 26.6061 65.4088C29.4484 66.2723 32.4166 66.704 35.5107 66.704C40.5477 66.704 45.009 65.7506 48.8947 63.8438C52.7804 61.9369 56.0364 59.4904 58.6629 56.5041C61.2893 53.5179 63.2861 50.1719 64.6533 46.4662C66.0204 42.7604 66.704 39.0726 66.704 35.4028V33.9996Z" fill="white"/>
</svg>
