<svg width="45" height="45" viewBox="0 0 45 45" fill="none" xmlns="http://www.w3.org/2000/svg">
<path fill-rule="evenodd" clip-rule="evenodd" d="M18.128 15.7098L16.7298 14.594L17.1891 13.8003L18.8532 14.4549L19.0134 14.2699L19.1879 14.083L19.3665 13.9146L19.5578 13.7505L18.9032 12.0862L19.699 11.627L20.8128 13.0233L21.0433 12.9423C21.2139 12.8924 21.3469 12.8571 21.5193 12.8134L21.7747 12.7676L22.0409 10.9994H22.9591L23.225 12.7656L23.4641 12.8113L23.7133 12.8695L23.944 12.938L24.1871 13.0253L25.301 11.627L26.0967 12.0862L25.4423 13.7505L25.6292 13.9105L25.8121 14.085L25.9824 14.2617L26.1465 14.4549L27.8109 13.8003L28.2703 14.5962L26.8717 15.7099L26.955 15.9426L27.0275 16.1836L27.0837 16.4163L27.1294 16.6718L28.8977 16.9378V17.856L27.1294 18.122L27.0859 18.3589L27.0276 18.6081L26.9569 18.843L26.8717 19.084L28.2703 20.1977L27.8109 20.9936L26.1465 20.339L25.9845 20.528L25.814 20.7109L25.6375 20.8751L25.4401 21.0433L26.0968 22.7077L25.3011 23.1669L24.1872 21.7686L23.9547 21.8517L23.7135 21.9243L23.4787 21.9805L23.2252 22.0262L22.9593 23.7945H22.0411L21.7749 22.0262L21.5444 21.9846C21.3636 21.941 21.2326 21.9057 21.054 21.8538L20.8131 21.7686L19.6993 23.1669L18.9035 22.7077L19.558 21.0433L19.3712 20.8833L19.1883 20.7088L19.0198 20.5302L18.8535 20.339L17.1894 20.9936L16.7301 20.1977L18.1264 19.084L18.0431 18.8492L17.9747 18.6101L17.9164 18.3713L17.8707 18.1219L16.1027 17.856V16.9377L17.8707 16.6695L17.9146 16.4305L17.9747 16.1833L18.041 15.9527L18.128 15.7098ZM17.3905 14.4694L18.4439 15.3108C18.5373 15.3857 18.5978 15.4854 18.6228 15.5914C18.6475 15.6953 18.6391 15.8074 18.5956 15.9092L18.525 16.1087L18.4666 16.3144L18.4126 16.5368L18.3732 16.7486C18.3546 16.8609 18.3025 16.9586 18.2297 17.0312C18.1529 17.1081 18.0555 17.158 17.9472 17.1747L16.6135 17.3762V17.4178L17.9432 17.6173C18.0617 17.6339 18.1656 17.6921 18.2424 17.7753C18.3192 17.8562 18.3691 17.9642 18.3793 18.0807L18.4148 18.2656L18.4666 18.4797L18.5289 18.6916L18.6039 18.9035C18.6433 19.0075 18.6455 19.1176 18.6184 19.2173C18.5894 19.3212 18.5289 19.4168 18.4438 19.4832L17.3883 20.3247L17.4093 20.3579L18.6685 19.8633C18.7765 19.8217 18.8887 19.8197 18.9926 19.8487C19.0962 19.8778 19.1919 19.9422 19.2607 20.0315L19.3955 20.1873L19.5494 20.3473L19.7114 20.5052L19.8777 20.6465C19.965 20.7172 20.0232 20.8107 20.0501 20.9104C20.0773 21.0143 20.073 21.1265 20.0335 21.2282L19.539 22.4874L19.5723 22.5061L20.4138 21.4505C20.4866 21.3592 20.5843 21.2989 20.6902 21.2739C20.7942 21.2491 20.9043 21.2553 21.0061 21.2969L21.2097 21.3696C21.3698 21.4153 21.4861 21.4485 21.648 21.4859L21.8519 21.5233C21.9638 21.542 22.0616 21.594 22.1344 21.6645C22.2112 21.7434 22.2629 21.8432 22.2778 21.9491L22.4792 23.2831H22.5209L22.7201 21.9513C22.7368 21.8349 22.7951 21.7311 22.8781 21.6542C22.9592 21.5773 23.0693 21.5274 23.1856 21.517L23.3726 21.4817L23.5804 21.4319L23.7966 21.3675L24.0042 21.2948C24.1103 21.2533 24.2204 21.2512 24.3201 21.2761C24.4241 21.3051 24.5175 21.3675 24.5859 21.4505L25.4256 22.5061L25.4607 22.4853L24.9662 21.2282C24.9245 21.1202 24.9228 21.0038 24.9539 20.9C24.9829 20.7983 25.0451 20.7047 25.1324 20.6382L25.2965 20.497L25.4522 20.3494L25.6061 20.1873L25.7497 20.019C25.8202 19.9318 25.9137 19.8737 26.0154 19.8465C26.1172 19.8195 26.2295 19.8236 26.3313 19.8631L27.5904 20.3577L27.609 20.3223L26.5537 19.4829C26.4621 19.4102 26.4019 19.3126 26.3769 19.2065C26.352 19.1026 26.3581 18.9925 26.3998 18.8907L26.4726 18.6849L26.5328 18.4773L26.5867 18.255L26.6262 18.043C26.645 17.9329 26.6968 17.8353 26.7696 17.7625C26.8464 17.6856 26.9464 17.6337 27.0522 17.6172L28.3863 17.4155V17.3761L27.0522 17.1766C26.9337 17.1579 26.8298 17.0997 26.7551 17.0167C26.6801 16.9357 26.6305 16.8297 26.6221 16.7154L26.5848 16.5241L26.5349 16.3164L26.4704 16.1003L26.3977 15.8926C26.3563 15.7866 26.352 15.6764 26.3791 15.5767C26.4081 15.4728 26.4704 15.3793 26.5537 15.3107L27.609 14.4694L27.5904 14.4361L26.3313 14.9285C26.2231 14.9701 26.1111 14.9743 26.0072 14.9451C25.9032 14.9161 25.8076 14.8516 25.7391 14.7623L25.604 14.6044L25.4522 14.4444L25.2881 14.2886L25.1218 14.1473C25.0346 14.0767 24.9767 13.9832 24.9494 13.8815C24.9226 13.7797 24.9266 13.6673 24.966 13.5656L25.4605 12.3065L25.4254 12.2877L24.5857 13.3412C24.5111 13.4346 24.4115 13.495 24.3054 13.5199C24.2015 13.5447 24.0891 13.5365 23.9874 13.4928L23.786 13.4221L23.5824 13.3618L23.3601 13.3099L23.1482 13.2704C23.0359 13.2516 22.9363 13.1997 22.8635 13.125C22.7888 13.0501 22.7368 12.9504 22.7201 12.8424L22.5208 11.5106H22.4813L22.2796 12.8424C22.2611 12.9629 22.2028 13.0668 22.1199 13.1416C22.0387 13.2164 21.9326 13.2662 21.8185 13.2747L21.6272 13.312C21.4693 13.3494 21.3552 13.3806 21.1991 13.4263L20.9937 13.5011C20.8897 13.5405 20.7796 13.5427 20.6797 13.5156C20.5761 13.4866 20.4823 13.4263 20.4138 13.3412L19.5723 12.2856L19.539 12.3064L20.0335 13.5655C20.0752 13.6714 20.0773 13.7857 20.0483 13.8896C20.019 13.9935 19.9545 14.0891 19.8675 14.1556L19.7095 14.2906L19.5494 14.4444L19.3915 14.6085L19.2502 14.7749C19.1796 14.862 19.0861 14.9202 18.9844 14.9472C18.8826 14.9743 18.7703 14.9701 18.6685 14.9285L17.4094 14.4341L17.3905 14.4694ZM23.8276 38.1353H21.1699V39.5358H23.8276V38.1353ZM19.8402 35.7147H19.8464H25.153H25.1595H25.9654V34.3164H25.2052H19.7946H19.034V35.7147H19.8402ZM19.7946 33.8052H25.2053C25.791 33.8052 26.323 33.5683 26.7114 33.1861L26.7241 33.1715C27.1146 32.7829 27.3559 32.2449 27.3559 31.6527C27.3559 31.4427 27.3599 31.237 27.366 31.0356L27.3682 31.0294C27.4514 28.5568 28.0372 26.7928 28.7334 25.2262L28.7562 25.1743L28.7667 25.1514L28.7812 25.1223L28.804 25.0703L28.8142 25.0474L28.8269 25.0163L28.8518 24.9665L28.8602 24.9456L28.8747 24.9145L28.8997 24.8626L28.9058 24.8438L28.9224 24.8106L28.9474 24.7586L28.9535 24.7441L28.9701 24.7067L28.9948 24.6568L29.0013 24.6423L29.0179 24.6048L29.0425 24.5551L29.049 24.5425L29.0656 24.503L29.0903 24.4532L29.0967 24.4428L29.1152 24.4013L29.1442 24.3431L29.1631 24.3015L29.1879 24.2496L29.1901 24.2433L29.2107 24.1997L29.2357 24.15L29.2397 24.1436L29.2607 24.1001L29.2857 24.048L29.2875 24.0439L29.3331 23.9484L29.3352 23.9463L29.3581 23.8985L29.3809 23.8488L29.3831 23.8467L29.4309 23.749L29.4475 23.7116C29.5721 23.4561 29.6967 23.2025 29.8174 22.947L29.8236 22.9324L29.834 22.9097L29.8527 22.8743L29.8673 22.841L29.8692 22.8369L29.8858 22.7995L29.9525 22.6582L29.9545 22.654L29.9709 22.6165L29.9876 22.5813L29.994 22.5668L30.0042 22.5439L30.0209 22.5064L30.0353 22.4732L30.0375 22.469L30.0541 22.4337L30.0707 22.3964L30.0769 22.3818L30.0873 22.3589L30.1039 22.3215L30.1183 22.2882L30.1202 22.2862L30.1368 22.2487L30.1534 22.2114L30.1596 22.1949L30.17 22.174L30.1845 22.1367L30.199 22.1034C30.914 20.4432 31.29 18.8205 31.29 16.9463C31.29 14.5195 30.3073 12.3212 28.7157 10.7296C27.1241 9.14019 24.9257 8.1552 22.4988 8.1552C20.072 8.1552 17.8739 9.14019 16.2823 10.7296C14.6907 12.3212 13.708 14.5195 13.708 16.9463C13.708 19.3462 14.3459 21.2223 15.3348 23.2711L15.3471 23.296L15.3536 23.3085L15.3721 23.3459L15.4076 23.4186L15.4242 23.4561L15.4344 23.4768L15.4427 23.4934L15.4615 23.5287L15.4781 23.566L15.4802 23.5681L15.4966 23.6034L15.5132 23.6408L15.5508 23.7135L15.5672 23.7488V23.7509L15.6399 23.9005L15.6628 23.9462L15.6649 23.9504L15.6878 24.0002L15.7106 24.0459L15.7127 24.0479L15.7378 24.1L15.7584 24.1436L15.7605 24.1478L15.7856 24.1997C16.6749 26.0386 17.5268 28.002 17.6304 31.0231V31.0294V31.0336V31.0356V31.0418C17.6388 31.2413 17.6431 31.4449 17.6431 31.6527C17.6431 32.2449 17.884 32.7829 18.2747 33.1715C18.6641 33.5643 19.2024 33.8052 19.7946 33.8052ZM30.9149 21.7064C30.6758 22.3234 30.4039 22.9094 30.1253 23.489L30.117 23.5056L30.1086 23.5222L29.9072 23.9378L29.8906 23.971L29.8468 24.0624L29.8427 24.0687L29.824 24.1061L29.7804 24.1975L29.7575 24.2411L29.7138 24.3326L29.7037 24.3575L29.6932 24.3782L29.6704 24.4218L29.6559 24.4529L29.6494 24.4675L29.6266 24.5133L29.583 24.6046L29.5621 24.6483V24.6503L29.5392 24.6961L29.5187 24.7418L29.5165 24.746L29.4708 24.8436L29.4542 24.8789L29.4251 24.9413L29.4107 24.9704L29.3898 25.0161L29.3796 25.039L29.367 25.0639L29.3462 25.1097L29.3336 25.1387L29.3256 25.1554L29.3047 25.2031C29.0427 25.7745 28.7957 26.3708 28.5816 27.0171H30.9356V24.7877C30.9356 24.6484 31.0519 24.5341 31.1913 24.5341C31.3326 24.5341 31.4467 24.6484 31.4467 24.7877V27.0171H32.893V23.703C32.893 23.5637 33.0071 23.4474 33.1484 23.4474C33.2875 23.4474 33.4041 23.5637 33.4041 23.703V27.0171H34.7752V24.7877C34.7752 24.6484 34.8897 24.5341 35.0309 24.5341C35.1721 24.5341 35.2866 24.6484 35.2866 24.7877V27.0171H36.7326V23.703C36.7326 23.5637 36.8467 23.4474 36.988 23.4474C37.1274 23.4474 37.2436 23.5637 37.2436 23.703V27.0171H38.8581C38.8581 19.0175 38.8581 24.9226 38.8581 21.7063H30.9149V21.7064ZM16.4183 27.0171C15.7844 25.1035 14.7955 23.5431 14.0848 21.7064H6.1416C6.1416 24.8645 6.1416 19.0987 6.1416 27.0171H7.89915V24.7878C7.89915 24.6485 8.01578 24.5342 8.15491 24.5342C8.29615 24.5342 8.41032 24.6485 8.41032 24.7878V27.0171H9.85665V23.7031C9.85665 23.5638 9.97073 23.4475 10.1121 23.4475C10.2515 23.4475 10.3677 23.5638 10.3677 23.7031V27.0171H11.7392V24.7878C11.7392 24.6485 11.8533 24.5342 11.9946 24.5342C12.1359 24.5342 12.2503 24.6485 12.2503 24.7878V27.0171H13.6963V23.7031C13.6963 23.5638 13.8108 23.4475 13.9521 23.4475C14.0912 23.4475 14.2075 23.5638 14.2075 23.7031V27.0171H16.4183ZM12.8548 29.2112L8.10095 30.5598L12.8548 31.9083V31.0501V31.0417V31.0355V30.0194V30.0132V30.0048V29.2112ZM17.025 29.7577C17 29.5458 16.9707 29.34 16.9377 29.1385H13.3659V29.7577H17.025ZM17.1102 30.7862C17.1018 30.6095 17.0914 30.4371 17.0769 30.2687H13.3659V30.7862H17.1102ZM17.1515 31.9788C17.1392 31.8729 17.133 31.7628 17.133 31.6527C17.133 31.5342 17.1309 31.4158 17.1287 31.2973H13.3659V31.9788H17.1515ZM20.9146 37.6262H24.0831H24.0914H24.8977V36.2258H20.1021V37.6262H20.9081H20.9146ZM33.5806 29.1385H32.2447V31.9787H33.5806C33.9464 31.9787 34.2808 31.8292 34.522 31.5882C34.765 31.3473 34.9146 31.0127 34.9146 30.6448V30.4725C34.9146 30.111 34.7691 29.7825 34.5343 29.5416L34.522 29.5291C34.2808 29.2882 33.9464 29.1385 33.5806 29.1385ZM31.7354 31.9788V29.1386H30.9479V31.9788H31.7354ZM30.4369 29.7577V29.1385H28.0621C28.0287 29.34 27.9997 29.5458 27.9748 29.7577H30.4369ZM30.4369 30.7862V30.2687H27.9229C27.9081 30.4371 27.898 30.6095 27.8896 30.7862H30.4369ZM30.4369 31.9788V31.2973H27.8709C27.8687 31.4158 27.8668 31.5342 27.8668 31.6527C27.8668 31.7628 27.8607 31.8729 27.8459 31.9788H30.4369ZM23.9439 15.9529C23.5741 15.5831 23.063 15.3545 22.4997 15.3545C21.9368 15.3545 21.4257 15.5831 21.0559 15.9529C20.686 16.3228 20.4574 16.834 20.4574 17.3971C20.4574 17.9602 20.686 18.4713 21.0559 18.8411C21.4257 19.2109 21.9368 19.4396 22.4997 19.4396C23.0629 19.4396 23.5741 19.2109 23.9439 18.8411C24.3138 18.4713 24.5424 17.9602 24.5424 17.3971C24.5424 16.834 24.3138 16.3228 23.9439 15.9529ZM37.6219 40.8738C37.761 40.8738 37.8755 40.9881 37.8755 41.1294C37.8755 41.2685 37.761 41.3849 37.6219 41.3849H32.7764C32.6352 41.3849 32.5211 41.2685 32.5211 41.1294C32.5211 40.9881 32.6352 40.8738 32.7764 40.8738H37.6219ZM31.6068 42.2036C31.7459 42.2036 31.8603 42.3178 31.8603 42.4591C31.8603 42.6004 31.7459 42.7148 31.6068 42.7148H20.6277C20.4865 42.7148 20.372 42.6004 20.372 42.4591C20.372 42.3178 20.4864 42.2036 20.6277 42.2036H31.6068ZM6.74611 42.7148C6.60487 42.7148 6.49044 42.6004 6.49044 42.4591C6.49044 42.3178 6.60487 42.2036 6.74611 42.2036H11.5894C11.7307 42.2036 11.8448 42.3178 11.8448 42.4591C11.8448 42.6004 11.7307 42.7148 11.5894 42.7148H6.74611ZM15.8634 42.7148C15.7221 42.7148 15.6077 42.6004 15.6077 42.4591C15.6077 42.3178 15.7221 42.2036 15.8634 42.2036H18.0722C18.2135 42.2036 18.3276 42.3178 18.3276 42.4591C18.3276 42.6004 18.2136 42.7148 18.0722 42.7148H15.8634ZM29.3856 4.52927C29.4563 4.40878 29.612 4.3672 29.7327 4.43576C29.8551 4.50651 29.8968 4.66225 29.8261 4.78284L28.4196 7.22215C28.3489 7.34265 28.1929 7.38625 28.0726 7.31558C27.9499 7.24501 27.9082 7.08918 27.9792 6.96868L29.3856 4.52927ZM34.6818 9.63844C34.8045 9.56998 34.9603 9.61146 35.0288 9.73196C35.0995 9.85465 35.0581 10.0105 34.9354 10.079L32.4982 11.4877C32.3755 11.5562 32.2197 11.5146 32.1513 11.3942C32.0806 11.2715 32.1219 11.1158 32.2447 11.0472L34.6818 9.63844ZM36.7138 16.7114C36.8551 16.7114 36.9696 16.8256 36.9696 16.9669C36.9696 17.1061 36.8551 17.2224 36.7138 17.2224H33.8986C33.7574 17.2224 33.6429 17.1061 33.6429 16.9669C33.6429 16.8256 33.7574 16.7114 33.8986 16.7114H36.7138ZM15.6015 4.78284C15.5309 4.66225 15.5725 4.50642 15.695 4.43576C15.8155 4.36729 15.9735 4.40878 16.042 4.52927L17.4507 6.96859C17.5195 7.08909 17.4778 7.24501 17.3572 7.31549C17.2348 7.38625 17.079 7.34265 17.0084 7.22207L15.6015 4.78284ZM10.4923 10.0791C10.3717 10.0106 10.3282 9.85465 10.3988 9.73205C10.4673 9.61155 10.6231 9.56998 10.7458 9.63853L13.1851 11.0473C13.3057 11.1159 13.3473 11.2717 13.2785 11.3943C13.2079 11.5147 13.0521 11.5564 12.9315 11.4878L10.4923 10.0791ZM22.261 2.53662C22.2629 2.39546 22.3795 2.28323 22.5186 2.28534C22.6599 2.28727 22.7721 2.40153 22.77 2.54303L22.7367 4.94078C22.7367 5.08202 22.6204 5.19417 22.4792 5.19206C22.34 5.19206 22.2278 5.07569 22.2299 4.93656L22.261 2.53662ZM10.9059 16.7114C11.0471 16.7114 11.1613 16.8256 11.1613 16.9669C11.1613 17.1061 11.0471 17.2224 10.9059 17.2224H8.0904C7.95127 17.2224 7.83473 17.1061 7.83473 16.9669C7.83473 16.8256 7.95136 16.7114 8.0904 16.7114H10.9059ZM12.7613 41.3849C12.62 41.3849 12.5056 41.2685 12.5056 41.1294C12.5056 40.9881 12.62 40.8738 12.7613 40.8738H29.795C29.9362 40.8738 30.0503 40.9881 30.0503 41.1294C30.0503 41.2685 29.9362 41.3849 29.795 41.3849H12.7613ZM22.4997 14.8434C23.2043 14.8434 23.8421 15.1301 24.3033 15.5915C24.7666 16.0547 25.0534 16.6925 25.0534 17.3971C25.0534 18.1014 24.7665 18.7393 24.3054 19.2006C23.8422 19.6639 23.2043 19.9506 22.4997 19.9506C21.7955 19.9506 21.1576 19.6639 20.6962 19.2026C20.2329 18.7393 19.9464 18.1014 19.9464 17.3971C19.9464 16.6925 20.2329 16.0548 20.6944 15.5935C21.1577 15.13 21.7955 14.8434 22.4997 14.8434Z" fill="#5F33C5"/>
</svg>
