<svg width="45" height="45" viewBox="0 0 45 45" fill="none" xmlns="http://www.w3.org/2000/svg">
<path d="M23.9063 34.0087V28.125H21.0938V34.0087C20.1555 34.3405 19.3647 34.9932 18.8612 35.8516C18.3576 36.71 18.1737 37.7188 18.342 38.6996C18.5103 39.6805 19.0199 40.5703 19.7808 41.2117C20.5417 41.8532 21.5048 42.205 22.5 42.205C23.4952 42.205 24.4583 41.8532 25.2192 41.2117C25.9801 40.5703 26.4897 39.6805 26.658 38.6996C26.8263 37.7188 26.6424 36.71 26.1389 35.8516C25.6353 34.9932 24.8445 34.3405 23.9063 34.0087Z" fill="#5F33C5"/>
<path d="M36.5626 16.875C35.3189 16.8787 34.1116 17.2949 33.1298 18.0583C32.148 18.8218 31.4472 19.8893 31.1373 21.0938H13.8629C13.5206 19.7682 12.7066 18.6129 11.5735 17.8445C10.4404 17.0761 9.06591 16.7473 7.70773 16.9198C6.34955 17.0924 5.10092 17.7543 4.19587 18.7816C3.29082 19.8088 2.7915 21.1309 2.7915 22.5C2.7915 23.8691 3.29082 25.1912 4.19587 26.2185C5.10092 27.2457 6.34955 27.9077 7.70773 28.0802C9.06591 28.2527 10.4404 27.9239 11.5735 27.1555C12.7066 26.3872 13.5206 25.2319 13.8629 23.9063H31.1373C31.4021 24.9224 31.9465 25.8438 32.7087 26.5661C33.4709 27.2883 34.4203 27.7824 35.4492 27.9921C36.4781 28.2019 37.5452 28.119 38.5293 27.7528C39.5134 27.3865 40.3751 26.7517 41.0165 25.9204C41.658 25.0891 42.0535 24.0945 42.1581 23.0497C42.2628 22.0049 42.0723 20.9517 41.6085 20.0097C41.1446 19.0676 40.4259 18.2745 39.534 17.7204C38.642 17.1664 37.6126 16.8735 36.5626 16.875ZM8.43757 25.3125C7.88131 25.3125 7.33755 25.1476 6.87503 24.8385C6.41252 24.5295 6.05203 24.0902 5.83916 23.5763C5.62629 23.0624 5.57059 22.4969 5.67912 21.9513C5.78764 21.4058 6.0555 20.9046 6.44884 20.5113C6.84217 20.1179 7.34331 19.8501 7.88888 19.7416C8.43445 19.633 8.99995 19.6887 9.51387 19.9016C10.0278 20.1145 10.467 20.475 10.7761 20.9375C11.0851 21.4 11.2501 21.9438 11.2501 22.5C11.249 23.2456 10.9523 23.9603 10.4251 24.4875C9.89788 25.0147 9.18315 25.3114 8.43757 25.3125ZM36.5626 25.3125C36.0063 25.3125 35.4625 25.1476 35 24.8385C34.5375 24.5295 34.177 24.0902 33.9642 23.5763C33.7513 23.0624 33.6956 22.4969 33.8041 21.9513C33.9126 21.4058 34.1805 20.9046 34.5738 20.5113C34.9672 20.1179 35.4683 19.8501 36.0139 19.7416C36.5595 19.633 37.125 19.6887 37.6389 19.9016C38.1528 20.1145 38.592 20.475 38.9011 20.9375C39.2101 21.4 39.3751 21.9438 39.3751 22.5C39.374 23.2456 39.0773 23.9603 38.5501 24.4875C38.0229 25.0147 37.3082 25.3114 36.5626 25.3125Z" fill="#5F33C5"/>
<path d="M26.7187 7.03126C26.7219 6.25709 26.512 5.49697 26.1121 4.83413C25.7121 4.1713 25.1374 3.6313 24.451 3.27328C23.7646 2.91526 22.9929 2.75301 22.2204 2.80432C21.4479 2.85563 20.7045 3.1185 20.0715 3.56416C19.4384 4.00981 18.9402 4.62107 18.6314 5.33098C18.3226 6.0409 18.2151 6.8221 18.3207 7.58904C18.4262 8.35598 18.7408 9.07909 19.2299 9.67918C19.719 10.2793 20.3638 10.7332 21.0937 10.9913V16.875H23.9062V10.9913C24.7268 10.7029 25.4379 10.1672 25.9416 9.45807C26.4452 8.74891 26.7167 7.90108 26.7187 7.03126Z" fill="#5F33C5"/>
</svg>
