<svg width="91" height="91" viewBox="0 0 91 91" fill="none" xmlns="http://www.w3.org/2000/svg">
<rect width="90.34" height="90.34" rx="20" fill="white"/>
<g clip-path="url(#clip0_72_111)">
<path d="M32.6045 55.9375H43.542V34.0625H32.6045C29.7037 34.0625 26.9217 35.2148 24.8705 37.266C22.8193 39.3172 21.667 42.0992 21.667 45C21.667 47.9008 22.8193 50.6828 24.8705 52.734C26.9217 54.7852 29.7037 55.9375 32.6045 55.9375Z" fill="black"/>
<path d="M32.6045 31.875H43.542V10H32.6045C29.7037 10 26.9217 11.1523 24.8705 13.2035C22.8193 15.2547 21.667 18.0367 21.667 20.9375C21.667 23.8383 22.8193 26.6203 24.8705 28.6715C26.9217 30.7227 29.7037 31.875 32.6045 31.875Z" fill="black"/>
<path d="M68.334 20.9375C68.334 18.0367 67.1816 15.2547 65.1305 13.2035C63.0793 11.1523 60.2973 10 57.3965 10H46.459V31.875H57.3965C60.2973 31.875 63.0793 30.7227 65.1305 28.6715C67.1816 26.6203 68.334 23.8383 68.334 20.9375Z" fill="black"/>
<path d="M46.459 45C46.459 46.4363 46.7419 47.8586 47.2916 49.1856C47.8412 50.5126 48.6469 51.7183 49.6625 52.734C50.6781 53.7496 51.8839 54.5553 53.2109 55.1049C54.5379 55.6546 55.9602 55.9375 57.3965 55.9375C58.8328 55.9375 60.2551 55.6546 61.5821 55.1049C62.9091 54.5553 64.1148 53.7496 65.1305 52.734C66.1461 51.7183 66.9518 50.5126 67.5014 49.1856C68.0511 47.8586 68.334 46.4363 68.334 45C68.334 43.5637 68.0511 42.1414 67.5014 40.8144C66.9518 39.4874 66.1461 38.2817 65.1305 37.266C64.1148 36.2504 62.9091 35.4447 61.5821 34.8951C60.2551 34.3454 58.8328 34.0625 57.3965 34.0625C55.9602 34.0625 54.5379 34.3454 53.2109 34.8951C51.8839 35.4447 50.6781 36.2504 49.6625 37.266C48.6469 38.2817 47.8412 39.4874 47.2916 40.8144C46.7419 42.1414 46.459 43.5637 46.459 45Z" fill="black"/>
<path d="M21.667 69.0625C21.667 71.9633 22.8193 74.7453 24.8705 76.7965C26.9217 78.8477 29.7037 80 32.6045 80C35.5053 80 38.2873 78.8477 40.3385 76.7965C42.3897 74.7453 43.542 71.9633 43.542 69.0625V58.125H32.6045C29.7037 58.125 26.9217 59.2773 24.8705 61.3285C22.8193 63.3797 21.667 66.1617 21.667 69.0625Z" fill="black"/>
</g>
<defs>
<clipPath id="clip0_72_111">
<rect width="70" height="70" fill="white" transform="translate(10 10)"/>
</clipPath>
</defs>
</svg>
