<svg width="90" height="90" viewBox="0 0 90 90" fill="none" xmlns="http://www.w3.org/2000/svg">
<path d="M45.0001 8.42513C36.0956 8.42549 27.4818 11.5943 20.7 17.3646C13.9181 23.1348 9.41073 31.13 7.98435 39.9194C6.55797 48.7089 8.30567 57.7192 12.9147 65.3379C17.5238 72.9567 24.6934 78.6869 33.1408 81.5032C35.0158 81.8314 35.7189 80.7064 35.7189 79.722C35.7189 78.8314 35.672 75.8782 35.672 72.7376C26.2501 74.472 23.8126 70.4409 23.0626 68.3315C22.2304 66.2799 20.9111 64.4619 19.2189 63.0345C17.9064 62.3314 16.0314 60.597 19.1719 60.5502C20.3711 60.6803 21.5213 61.0976 22.525 61.7667C23.5286 62.4358 24.3562 63.3369 24.9376 64.3938C25.4505 65.3152 26.1402 66.1263 26.9671 66.7807C27.794 67.4351 28.7419 67.9198 29.7565 68.2072C30.7711 68.4946 31.8324 68.579 32.8796 68.4555C33.9269 68.332 34.9395 68.0031 35.8594 67.4876C36.0217 65.5812 36.8714 63.7987 38.2501 62.4721C29.9064 61.5346 21.1876 58.3001 21.1876 43.9565C21.1349 40.2295 22.5102 36.6237 25.0314 33.8784C23.8849 30.6392 24.0191 27.0844 25.4064 23.9409C25.4064 23.9409 28.5469 22.9564 35.7189 27.7846C41.8549 26.097 48.3328 26.097 54.4689 27.7846C61.6407 22.9096 64.7814 23.9409 64.7814 23.9409C66.1688 27.0844 66.303 30.6392 65.1564 33.8784C67.6851 36.619 69.0616 40.228 69.0001 43.9565C69.0001 58.347 60.2344 61.5346 51.8907 62.4721C52.7857 63.3792 53.4749 64.4682 53.9117 65.6653C54.3484 66.8623 54.5225 68.1393 54.422 69.4096C54.422 74.4253 54.3751 78.4564 54.3751 79.7221C54.3751 80.7065 55.0782 81.8784 56.9532 81.5034C65.3857 78.6641 72.5347 72.9205 77.1242 65.2978C81.7136 57.6751 83.4447 48.6695 82.0084 39.8885C80.5721 31.1075 76.062 23.1228 69.2831 17.3595C62.5042 11.5963 53.8978 8.42976 45.0001 8.42513Z" fill="black"/>
</svg>
