<svg width="72" height="72" viewBox="0 0 72 72" fill="none" xmlns="http://www.w3.org/2000/svg">
<path d="M21 20C22.6569 20 24 18.6569 24 17C24 15.3431 22.6569 14 21 14C19.3431 14 18 15.3431 18 17C18 18.6569 19.3431 20 21 20Z" fill="#5F33C5"/>
<path d="M55.9917 29.324C57.6486 29.324 58.9917 27.9809 58.9917 26.324C58.9917 24.6672 57.6486 23.324 55.9917 23.324C54.3348 23.324 52.9917 24.6672 52.9917 26.324C52.9917 27.9809 54.3348 29.324 55.9917 29.324Z" fill="#5F33C5"/>
<path d="M29.9927 50.008C31.6495 50.008 32.9927 48.6648 32.9927 47.008C32.9927 45.3511 31.6495 44.008 29.9927 44.008C28.3358 44.008 26.9927 45.3511 26.9927 47.008C26.9927 48.6648 28.3358 50.008 29.9927 50.008Z" fill="#5F33C5"/>
<path d="M17.1028 25.637C18.0185 24.8304 19.1836 24.363 20.4028 24.313L20.6908 24.301C21.5327 24.2666 22.3728 24.4019 23.1614 24.6987C23.9499 24.9956 24.6707 25.448 25.2808 26.029C25.956 26.6718 26.406 27.5152 26.5638 28.434L27.0048 31L14.9238 30.993L15.1458 29.306C15.3333 27.887 16.0285 26.5839 17.1028 25.638M51.7588 35.314L52.3518 34.791C53.1416 34.0956 54.1464 33.6927 55.1978 33.65L55.8728 33.622C56.6744 33.5894 57.4743 33.7183 58.225 34.0011C58.9758 34.2838 59.662 34.7147 60.2428 35.268C60.9778 35.9678 61.4677 36.8859 61.6398 37.886L62.0598 40.326L49.9788 40.318L50.2698 38.105C50.4125 37.0256 50.9415 36.0334 51.7588 35.314ZM26.6878 55.172C27.2562 54.6715 27.9791 54.3813 28.7358 54.35L29.1878 54.332C30.2039 54.2904 31.2179 54.4535 32.1696 54.8117C33.1214 55.1699 33.9913 55.7158 34.7278 56.417C35.1438 56.813 35.4208 57.333 35.5178 57.899L36.0528 61.007L23.9718 60.999L24.1008 60.022C24.3484 58.1457 25.2674 56.4227 26.6878 55.172Z" fill="#5F33C5"/>
<path d="M21 20C22.6569 20 24 18.6569 24 17C24 15.3431 22.6569 14 21 14C19.3431 14 18 15.3431 18 17C18 18.6569 19.3431 20 21 20Z" stroke="#5F33C5" stroke-width="2" stroke-miterlimit="10"/>
<path d="M15 30C15 30 16 25.689 18 24.689C20 23.689 22 23.689 24 24.689C26 25.689 27 30 27 30" stroke="#5F33C5" stroke-width="2" stroke-linecap="round" stroke-linejoin="round"/>
<path d="M55.9922 29.324C57.649 29.324 58.9922 27.9809 58.9922 26.324C58.9922 24.6672 57.649 23.324 55.9922 23.324C54.3353 23.324 52.9922 24.6672 52.9922 26.324C52.9922 27.9809 54.3353 29.324 55.9922 29.324Z" stroke="#5F33C5" stroke-width="2" stroke-miterlimit="10"/>
<path d="M49.9922 39.324C49.9922 39.324 50.9922 35.013 52.9922 34.013C54.9922 33.013 56.9922 33.013 58.9922 34.013C60.9922 35.013 61.9922 39.323 61.9922 39.323" stroke="#5F33C5" stroke-width="2" stroke-linecap="round" stroke-linejoin="round"/>
<path d="M29.9932 50.008C31.65 50.008 32.9932 48.6648 32.9932 47.008C32.9932 45.3511 31.65 44.008 29.9932 44.008C28.3363 44.008 26.9932 45.3511 26.9932 47.008C26.9932 48.6648 28.3363 50.008 29.9932 50.008Z" stroke="#5F33C5" stroke-width="2" stroke-miterlimit="10"/>
<path d="M23.993 60.008C23.993 60.008 24.993 55.697 26.993 54.697C28.993 53.697 30.993 53.697 32.993 54.697C34.993 55.697 35.993 60.007 35.993 60.007M52.552 20.136C48.333 15.159 42.035 12 35 12C32.23 12 29.576 12.49 27.117 13.387M39.433 57.573C47.646 55.969 54.295 49.996 56.86 42.171M12.087 32.988C12.029 33.6571 12 34.3284 12 35C12 42.974 16.058 50 22.222 54.127" stroke="#5F33C5" stroke-width="2" stroke-linecap="round" stroke-linejoin="round"/>
</svg>
